{
    "asset" : {
        "generator" : "Khronos glTF Blender I/O v1.7.33",
        "version" : "2.0"
    },
    "scene" : 0,
    "scenes" : [
        {
            "name" : "Scene",
            "nodes" : [
                0,
                1,
                2,
                3,
                4,
                5,
                6,
                7
            ]
        }
    ],
    "nodes" : [
        {
            "mesh" : 0,
            "name" : "phone_base",
            "rotation" : [
                0,
                0,
                -1,
                -2.770026731013786e-05
            ],
            "translation" : [
                3.5954952239990234,
                7.536715984344482,
                0
            ]
        },
        {
            "mesh" : 1,
            "name" : "camera_base",
            "rotation" : [
                0,
                0,
                -0.9999960660934448,
                -0.0028120679780840874
            ],
            "translation" : [
                1.079453945159912,
                7.098476886749268,
                0.3039698898792267
            ]
        },
        {
            "mesh" : 2,
            "name" : "Circle",
            "rotation" : [
                0.7078028917312622,
                -0.000418336276197806,
                0.0004198836977593601,
                0.706409752368927
            ],
            "scale" : [
                -0.6247522234916687,
                -0.7111932635307312,
                -0.6249399781227112
            ],
            "translation" : [
                -2.251338005065918,
                6.214086055755615,
                0.3120627701282501
            ]
        },
        {
            "mesh" : 3,
            "name" : "camera1",
            "rotation" : [
                0.7078028917312622,
                -0.000418336276197806,
                0.0004198836977593601,
                0.706409752368927
            ],
            "scale" : [
                -0.6247522234916687,
                -0.7111932635307312,
                -0.6249399781227112
            ],
            "translation" : [
                -1.0589566230773926,
                5.012691020965576,
                0.3111092150211334
            ]
        },
        {
            "mesh" : 4,
            "name" : "camera2",
            "rotation" : [
                -0.7055955529212952,
                0.06961320340633392,
                -0.06769111007452011,
                0.701930820941925
            ],
            "scale" : [
                0.2221529185771942,
                0.2221529483795166,
                0.2221529483795166
            ],
            "translation" : [
                -0.8468728065490723,
                6.40997838973999,
                0.1556636542081833
            ]
        },
        {
            "mesh" : 5,
            "name" : "screen",
            "rotation" : [
                0,
                0.7072045803070068,
                -0.7070090174674988,
                -5.3377693376432944e-08
            ],
            "scale" : [
                1.0099726915359497,
                1,
                1.0102037191390991
            ],
            "translation" : [
                -0.38031625747680664,
                5.5779337882995605,
                -0.7852247953414917
            ]
        },
        {
            "mesh" : 6,
            "name" : "Plane",
            "rotation" : [
                0,
                0,
                0.7090312838554382,
                0.7051770091056824
            ],
            "translation" : [
                -3.60896897315979,
                2.7227296829223633,
                -0.42908644676208496
            ]
        },
        {
            "mesh" : 7,
            "name" : "Plane.001",
            "rotation" : [
                0,
                0,
                0.7090312838554382,
                0.7051770091056824
            ],
            "translation" : [
                -3.6192610263824463,
                1.1876369714736938,
                -0.4261763095855713
            ]
        }
    ],
    "materials" : [
        {
            "doubleSided" : true,
            "name" : "colorPhone",
            "pbrMetallicRoughness" : {
                "baseColorFactor" : [
                    0.4000000059604645,
                    0.4000000059604645,
                    0.4000000059604645,
                    1
                ],
                "metallicFactor" : 0.5963302850723267,
                "roughnessFactor" : 0.5
            }
        },
        {
            "doubleSided" : true,
            "name" : "Material.004",
            "pbrMetallicRoughness" : {
                "baseColorTexture" : {
                    "index" : 0
                },
                "metallicFactor" : 0,
                "roughnessFactor" : 0.5
            }
        },
        {
            "doubleSided" : true,
            "name" : "Material.005",
            "pbrMetallicRoughness" : {
                "baseColorTexture" : {
                    "index" : 1
                },
                "metallicFactor" : 0,
                "roughnessFactor" : 0.5
            }
        },
        {
            "doubleSided" : true,
            "name" : "Material.008",
            "pbrMetallicRoughness" : {
                "baseColorTexture" : {
                    "index" : 2
                },
                "metallicFactor" : 0,
                "roughnessFactor" : 0.5
            }
        },
        {
            "doubleSided" : true,
            "name" : "Material.009",
            "pbrMetallicRoughness" : {
                "baseColorTexture" : {
                    "index" : 3
                },
                "metallicFactor" : 0,
                "roughnessFactor" : 0.5
            }
        }
    ],
    "meshes" : [
        {
            "name" : "phone_base",
            "primitives" : [
                {
                    "attributes" : {
                        "POSITION" : 0,
                        "NORMAL" : 1
                    },
                    "indices" : 2,
                    "material" : 0
                }
            ]
        },
        {
            "name" : "camera",
            "primitives" : [
                {
                    "attributes" : {
                        "POSITION" : 3,
                        "NORMAL" : 4
                    },
                    "indices" : 5,
                    "material" : 0
                }
            ]
        },
        {
            "name" : "Circle",
            "primitives" : [
                {
                    "attributes" : {
                        "POSITION" : 6,
                        "NORMAL" : 7,
                        "TEXCOORD_0" : 8
                    },
                    "indices" : 9,
                    "material" : 1
                }
            ]
        },
        {
            "name" : "Circle.001",
            "primitives" : [
                {
                    "attributes" : {
                        "POSITION" : 10,
                        "NORMAL" : 11,
                        "TEXCOORD_0" : 12
                    },
                    "indices" : 9,
                    "material" : 2
                }
            ]
        },
        {
            "name" : "Circle.002",
            "primitives" : [
                {
                    "attributes" : {
                        "POSITION" : 13,
                        "NORMAL" : 14,
                        "TEXCOORD_0" : 15
                    },
                    "indices" : 16,
                    "material" : 3
                }
            ]
        },
        {
            "name" : "Plane",
            "primitives" : [
                {
                    "attributes" : {
                        "POSITION" : 17,
                        "NORMAL" : 18,
                        "TEXCOORD_0" : 19
                    },
                    "indices" : 20,
                    "material" : 4
                }
            ]
        },
        {
            "name" : "Plane.001",
            "primitives" : [
                {
                    "attributes" : {
                        "POSITION" : 21,
                        "NORMAL" : 22,
                        "TEXCOORD_0" : 23
                    },
                    "indices" : 24,
                    "material" : 0
                }
            ]
        },
        {
            "name" : "Plane.002",
            "primitives" : [
                {
                    "attributes" : {
                        "POSITION" : 25,
                        "NORMAL" : 26,
                        "TEXCOORD_0" : 27
                    },
                    "indices" : 24,
                    "material" : 0
                }
            ]
        }
    ],
    "textures" : [
        {
            "sampler" : 0,
            "source" : 0
        },
        {
            "sampler" : 0,
            "source" : 1
        },
        {
            "sampler" : 0,
            "source" : 2
        },
        {
            "sampler" : 1,
            "source" : 3
        }
    ],
    "images" : [
        {
            "mimeType" : "image/png",
            "name" : "cameralens",
            "uri" : "cameralens.png"
        },
        {
            "mimeType" : "image/png",
            "name" : "cameralens.png",
            "uri" : "cameralens_png.png"
        },
        {
            "mimeType" : "image/png",
            "name" : "cameraflash",
            "uri" : "cameraflash.png"
        },
        {
            "mimeType" : "image/jpeg",
            "name" : "screen",
            "uri" : "screen.jpg"
        }
    ],
    "accessors" : [
        {
            "bufferView" : 0,
            "componentType" : 5126,
            "count" : 284434,
            "max" : [
                7.211905479431152,
                14.725432395935059,
                0
            ],
            "min" : [
                0,
                0,
                -0.7649999856948853
            ],
            "type" : "VEC3"
        },
        {
            "bufferView" : 1,
            "componentType" : 5126,
            "count" : 284434,
            "type" : "VEC3"
        },
        {
            "bufferView" : 2,
            "componentType" : 5125,
            "count" : 934140,
            "type" : "SCALAR"
        },
        {
            "bufferView" : 3,
            "componentType" : 5126,
            "count" : 4269,
            "max" : [
                4.224634170532227,
                3.0006446838378906,
                0
            ],
            "min" : [
                1.2246341705322266,
                0.0006448477506637573,
                -0.30000001192092896
            ],
            "type" : "VEC3"
        },
        {
            "bufferView" : 4,
            "componentType" : 5126,
            "count" : 4269,
            "type" : "VEC3"
        },
        {
            "bufferView" : 5,
            "componentType" : 5123,
            "count" : 4692,
            "type" : "SCALAR"
        },
        {
            "bufferView" : 6,
            "componentType" : 5126,
            "count" : 32,
            "max" : [
                1,
                0,
                1
            ],
            "min" : [
                -1,
                0,
                -1
            ],
            "type" : "VEC3"
        },
        {
            "bufferView" : 7,
            "componentType" : 5126,
            "count" : 32,
            "type" : "VEC3"
        },
        {
            "bufferView" : 8,
            "componentType" : 5126,
            "count" : 32,
            "type" : "VEC2"
        },
        {
            "bufferView" : 9,
            "componentType" : 5123,
            "count" : 90,
            "type" : "SCALAR"
        },
        {
            "bufferView" : 10,
            "componentType" : 5126,
            "count" : 32,
            "max" : [
                1,
                0,
                1
            ],
            "min" : [
                -1,
                0,
                -1
            ],
            "type" : "VEC3"
        },
        {
            "bufferView" : 11,
            "componentType" : 5126,
            "count" : 32,
            "type" : "VEC3"
        },
        {
            "bufferView" : 12,
            "componentType" : 5126,
            "count" : 32,
            "type" : "VEC2"
        },
        {
            "bufferView" : 13,
            "componentType" : 5126,
            "count" : 44,
            "max" : [
                1,
                0,
                1
            ],
            "min" : [
                -1,
                0,
                -1
            ],
            "type" : "VEC3"
        },
        {
            "bufferView" : 14,
            "componentType" : 5126,
            "count" : 44,
            "type" : "VEC3"
        },
        {
            "bufferView" : 15,
            "componentType" : 5126,
            "count" : 44,
            "type" : "VEC2"
        },
        {
            "bufferView" : 16,
            "componentType" : 5123,
            "count" : 96,
            "type" : "SCALAR"
        },
        {
            "bufferView" : 17,
            "componentType" : 5126,
            "count" : 136,
            "max" : [
                3.1277971267700195,
                0.00024189148098230362,
                12.552184104919434
            ],
            "min" : [
                -3.877516984939575,
                -0.0031947989482432604,
                -1.874661922454834
            ],
            "type" : "VEC3"
        },
        {
            "bufferView" : 18,
            "componentType" : 5126,
            "count" : 136,
            "type" : "VEC3"
        },
        {
            "bufferView" : 19,
            "componentType" : 5126,
            "count" : 136,
            "type" : "VEC2"
        },
        {
            "bufferView" : 20,
            "componentType" : 5123,
            "count" : 402,
            "type" : "SCALAR"
        },
        {
            "bufferView" : 21,
            "componentType" : 5126,
            "count" : 1000,
            "max" : [
                1.0546783208847046,
                0.05521448329091072,
                0.30435681343078613
            ],
            "min" : [
                -0.33362874388694763,
                -0.006926133297383785,
                -0.2035914659500122
            ],
            "type" : "VEC3"
        },
        {
            "bufferView" : 22,
            "componentType" : 5126,
            "count" : 1000,
            "type" : "VEC3"
        },
        {
            "bufferView" : 23,
            "componentType" : 5126,
            "count" : 1000,
            "type" : "VEC2"
        },
        {
            "bufferView" : 24,
            "componentType" : 5123,
            "count" : 1788,
            "type" : "SCALAR"
        },
        {
            "bufferView" : 25,
            "componentType" : 5126,
            "count" : 1000,
            "max" : [
                1.0546783208847046,
                0.05521448329091072,
                0.30435681343078613
            ],
            "min" : [
                -0.33362874388694763,
                -0.006926133297383785,
                -0.2035914659500122
            ],
            "type" : "VEC3"
        },
        {
            "bufferView" : 26,
            "componentType" : 5126,
            "count" : 1000,
            "type" : "VEC3"
        },
        {
            "bufferView" : 27,
            "componentType" : 5126,
            "count" : 1000,
            "type" : "VEC2"
        }
    ],
    "bufferViews" : [
        {
            "buffer" : 0,
            "byteLength" : 3413208,
            "byteOffset" : 0
        },
        {
            "buffer" : 0,
            "byteLength" : 3413208,
            "byteOffset" : 3413208
        },
        {
            "buffer" : 0,
            "byteLength" : 3736560,
            "byteOffset" : 6826416
        },
        {
            "buffer" : 0,
            "byteLength" : 51228,
            "byteOffset" : 10562976
        },
        {
            "buffer" : 0,
            "byteLength" : 51228,
            "byteOffset" : 10614204
        },
        {
            "buffer" : 0,
            "byteLength" : 9384,
            "byteOffset" : 10665432
        },
        {
            "buffer" : 0,
            "byteLength" : 384,
            "byteOffset" : 10674816
        },
        {
            "buffer" : 0,
            "byteLength" : 384,
            "byteOffset" : 10675200
        },
        {
            "buffer" : 0,
            "byteLength" : 256,
            "byteOffset" : 10675584
        },
        {
            "buffer" : 0,
            "byteLength" : 180,
            "byteOffset" : 10675840
        },
        {
            "buffer" : 0,
            "byteLength" : 384,
            "byteOffset" : 10676020
        },
        {
            "buffer" : 0,
            "byteLength" : 384,
            "byteOffset" : 10676404
        },
        {
            "buffer" : 0,
            "byteLength" : 256,
            "byteOffset" : 10676788
        },
        {
            "buffer" : 0,
            "byteLength" : 528,
            "byteOffset" : 10677044
        },
        {
            "buffer" : 0,
            "byteLength" : 528,
            "byteOffset" : 10677572
        },
        {
            "buffer" : 0,
            "byteLength" : 352,
            "byteOffset" : 10678100
        },
        {
            "buffer" : 0,
            "byteLength" : 192,
            "byteOffset" : 10678452
        },
        {
            "buffer" : 0,
            "byteLength" : 1632,
            "byteOffset" : 10678644
        },
        {
            "buffer" : 0,
            "byteLength" : 1632,
            "byteOffset" : 10680276
        },
        {
            "buffer" : 0,
            "byteLength" : 1088,
            "byteOffset" : 10681908
        },
        {
            "buffer" : 0,
            "byteLength" : 804,
            "byteOffset" : 10682996
        },
        {
            "buffer" : 0,
            "byteLength" : 12000,
            "byteOffset" : 10683800
        },
        {
            "buffer" : 0,
            "byteLength" : 12000,
            "byteOffset" : 10695800
        },
        {
            "buffer" : 0,
            "byteLength" : 8000,
            "byteOffset" : 10707800
        },
        {
            "buffer" : 0,
            "byteLength" : 3576,
            "byteOffset" : 10715800
        },
        {
            "buffer" : 0,
            "byteLength" : 12000,
            "byteOffset" : 10719376
        },
        {
            "buffer" : 0,
            "byteLength" : 12000,
            "byteOffset" : 10731376
        },
        {
            "buffer" : 0,
            "byteLength" : 8000,
            "byteOffset" : 10743376
        }
    ],
    "samplers" : [
        {
            "magFilter" : 9729,
            "minFilter" : 9987
        },
        {
            "magFilter" : 9729,
            "minFilter" : 9987,
            "wrapS" : 33071,
            "wrapT" : 33071
        }
    ],
    "buffers" : [
        {
            "byteLength" : 10751376,
            "uri" : "phone_v2-2.bin"
        }
    ]
}
