{
    "asset" : {
        "generator" : "Khronos glTF Blender I/O v1.7.33",
        "version" : "2.0"
    },
    "scene" : 0,
    "scenes" : [
        {
            "name" : "Scene",
            "nodes" : [
                0
            ]
        }
    ],
    "nodes" : [
        {
            "mesh" : 0,
            "name" : "screen",
            "rotation" : [
                0,
                0.7072045803070068,
                -0.7070090174674988,
                -5.3377693376432944e-08
            ],
            "scale" : [
                0.9632943272590637,
                0.9537825584411621,
                0.9542849659919739
            ],
            "translation" : [
                -0.40270090103149414,
                4.674590110778809,
                -0.48387810587882996
            ]
        }
    ],
    "materials" : [
        {
            "doubleSided" : true,
            "name" : "Material.009",
            "pbrMetallicRoughness" : {
                "baseColorTexture" : {
                    "index" : 0
                },
                "metallicFactor" : 0,
                "roughnessFactor" : 0.5
            }
        },
        {
            "doubleSided" : true,
            "name" : "phone_color",
            "pbrMetallicRoughness" : {
                "baseColorFactor" : [
                    0.800000011920929,
                    0.800000011920929,
                    0.800000011920929,
                    1
                ],
                "metallicFactor" : 0.6499999761581421,
                "roughnessFactor" : 0.5
            }
        },
        {
            "doubleSided" : true,
            "name" : "Material.004",
            "pbrMetallicRoughness" : {
                "baseColorTexture" : {
                    "index" : 1
                },
                "metallicFactor" : 0,
                "roughnessFactor" : 0.5
            }
        },
        {
            "doubleSided" : true,
            "name" : "Material.005",
            "pbrMetallicRoughness" : {
                "baseColorTexture" : {
                    "index" : 2
                },
                "metallicFactor" : 0,
                "roughnessFactor" : 0.5
            }
        },
        {
            "doubleSided" : true,
            "name" : "Material.008",
            "pbrMetallicRoughness" : {
                "baseColorTexture" : {
                    "index" : 3
                },
                "metallicFactor" : 0,
                "roughnessFactor" : 0.5
            }
        }
    ],
    "meshes" : [
        {
            "name" : "Plane",
            "primitives" : [
                {
                    "attributes" : {
                        "POSITION" : 0,
                        "NORMAL" : 1,
                        "TEXCOORD_0" : 2
                    },
                    "indices" : 3,
                    "material" : 0
                },
                {
                    "attributes" : {
                        "POSITION" : 4,
                        "NORMAL" : 5,
                        "TEXCOORD_0" : 6
                    },
                    "indices" : 7,
                    "material" : 1
                },
                {
                    "attributes" : {
                        "POSITION" : 8,
                        "NORMAL" : 9,
                        "TEXCOORD_0" : 10
                    },
                    "indices" : 11,
                    "material" : 2
                },
                {
                    "attributes" : {
                        "POSITION" : 12,
                        "NORMAL" : 13,
                        "TEXCOORD_0" : 14
                    },
                    "indices" : 11,
                    "material" : 3
                },
                {
                    "attributes" : {
                        "POSITION" : 15,
                        "NORMAL" : 16,
                        "TEXCOORD_0" : 17
                    },
                    "indices" : 18,
                    "material" : 4
                }
            ]
        }
    ],
    "textures" : [
        {
            "sampler" : 0,
            "source" : 0
        },
        {
            "sampler" : 1,
            "source" : 1
        },
        {
            "sampler" : 1,
            "source" : 2
        },
        {
            "sampler" : 1,
            "source" : 3
        }
    ],
    "images" : [
        {
            "mimeType" : "image/jpeg",
            "name" : "screen",
            "uri" : "screen.jpg"
        },
        {
            "mimeType" : "image/png",
            "name" : "cameralens",
            "uri" : "cameralens.png"
        },
        {
            "mimeType" : "image/png",
            "name" : "cameralens.png",
            "uri" : "cameralens_png.png"
        },
        {
            "mimeType" : "image/png",
            "name" : "cameraflash",
            "uri" : "cameraflash.png"
        }
    ],
    "accessors" : [
        {
            "bufferView" : 0,
            "componentType" : 5126,
            "count" : 136,
            "max" : [
                3.1775619983673096,
                0.0002724803052842617,
                12.986557006835938
            ],
            "min" : [
                -3.9272818565368652,
                -0.0033120804000645876,
                -1.99873685836792
            ],
            "type" : "VEC3"
        },
        {
            "bufferView" : 1,
            "componentType" : 5126,
            "count" : 136,
            "type" : "VEC3"
        },
        {
            "bufferView" : 2,
            "componentType" : 5126,
            "count" : 136,
            "type" : "VEC2"
        },
        {
            "bufferView" : 3,
            "componentType" : 5123,
            "count" : 402,
            "type" : "SCALAR"
        },
        {
            "bufferView" : 4,
            "componentType" : 5126,
            "count" : 906671,
            "max" : [
                3.4575119018554688,
                -0.020614683628082275,
                13.24803352355957
            ],
            "min" : [
                -4.127206802368164,
                -1.1422910690307617,
                -2.182953119277954
            ],
            "type" : "VEC3"
        },
        {
            "bufferView" : 5,
            "componentType" : 5126,
            "count" : 906671,
            "type" : "VEC3"
        },
        {
            "bufferView" : 6,
            "componentType" : 5126,
            "count" : 906671,
            "type" : "VEC2"
        },
        {
            "bufferView" : 7,
            "componentType" : 5125,
            "count" : 943224,
            "type" : "SCALAR"
        },
        {
            "bufferView" : 8,
            "componentType" : 5126,
            "count" : 32,
            "max" : [
                2.5908734798431396,
                -1.1488844156265259,
                -0.1419433355331421
            ],
            "min" : [
                1.2937583923339844,
                -1.1515926122665405,
                -1.4516969919204712
            ],
            "type" : "VEC3"
        },
        {
            "bufferView" : 9,
            "componentType" : 5126,
            "count" : 32,
            "type" : "VEC3"
        },
        {
            "bufferView" : 10,
            "componentType" : 5126,
            "count" : 32,
            "type" : "VEC2"
        },
        {
            "bufferView" : 11,
            "componentType" : 5123,
            "count" : 90,
            "type" : "SCALAR"
        },
        {
            "bufferView" : 12,
            "componentType" : 5126,
            "count" : 32,
            "max" : [
                1.3530569076538086,
                -1.1482330560684204,
                1.117004632949829
            ],
            "min" : [
                0.05594182014465332,
                -1.150941252708435,
                -0.19274908304214478
            ],
            "type" : "VEC3"
        },
        {
            "bufferView" : 13,
            "componentType" : 5126,
            "count" : 32,
            "type" : "VEC3"
        },
        {
            "bufferView" : 14,
            "componentType" : 5126,
            "count" : 32,
            "type" : "VEC2"
        },
        {
            "bufferView" : 15,
            "componentType" : 5126,
            "count" : 96,
            "max" : [
                0.7149507999420166,
                -0.9847872257232666,
                -0.7692598700523376
            ],
            "min" : [
                0.25371819734573364,
                -0.9876205921173096,
                -1.2348432540893555
            ],
            "type" : "VEC3"
        },
        {
            "bufferView" : 16,
            "componentType" : 5126,
            "count" : 96,
            "type" : "VEC3"
        },
        {
            "bufferView" : 17,
            "componentType" : 5126,
            "count" : 96,
            "type" : "VEC2"
        },
        {
            "bufferView" : 18,
            "componentType" : 5123,
            "count" : 96,
            "type" : "SCALAR"
        }
    ],
    "bufferViews" : [
        {
            "buffer" : 0,
            "byteLength" : 1632,
            "byteOffset" : 0
        },
        {
            "buffer" : 0,
            "byteLength" : 1632,
            "byteOffset" : 1632
        },
        {
            "buffer" : 0,
            "byteLength" : 1088,
            "byteOffset" : 3264
        },
        {
            "buffer" : 0,
            "byteLength" : 804,
            "byteOffset" : 4352
        },
        {
            "buffer" : 0,
            "byteLength" : 10880052,
            "byteOffset" : 5156
        },
        {
            "buffer" : 0,
            "byteLength" : 10880052,
            "byteOffset" : 10885208
        },
        {
            "buffer" : 0,
            "byteLength" : 7253368,
            "byteOffset" : 21765260
        },
        {
            "buffer" : 0,
            "byteLength" : 3772896,
            "byteOffset" : 29018628
        },
        {
            "buffer" : 0,
            "byteLength" : 384,
            "byteOffset" : 32791524
        },
        {
            "buffer" : 0,
            "byteLength" : 384,
            "byteOffset" : 32791908
        },
        {
            "buffer" : 0,
            "byteLength" : 256,
            "byteOffset" : 32792292
        },
        {
            "buffer" : 0,
            "byteLength" : 180,
            "byteOffset" : 32792548
        },
        {
            "buffer" : 0,
            "byteLength" : 384,
            "byteOffset" : 32792728
        },
        {
            "buffer" : 0,
            "byteLength" : 384,
            "byteOffset" : 32793112
        },
        {
            "buffer" : 0,
            "byteLength" : 256,
            "byteOffset" : 32793496
        },
        {
            "buffer" : 0,
            "byteLength" : 1152,
            "byteOffset" : 32793752
        },
        {
            "buffer" : 0,
            "byteLength" : 1152,
            "byteOffset" : 32794904
        },
        {
            "buffer" : 0,
            "byteLength" : 768,
            "byteOffset" : 32796056
        },
        {
            "buffer" : 0,
            "byteLength" : 192,
            "byteOffset" : 32796824
        }
    ],
    "samplers" : [
        {
            "magFilter" : 9729,
            "minFilter" : 9987,
            "wrapS" : 33071,
            "wrapT" : 33071
        },
        {
            "magFilter" : 9729,
            "minFilter" : 9987
        }
    ],
    "buffers" : [
        {
            "byteLength" : 32797016,
            "uri" : "phone_v3-2.bin"
        }
    ]
}
