{
    "asset" : {
        "generator" : "Khronos glTF Blender I/O v1.7.33",
        "version" : "2.0"
    },
    "scene" : 0,
    "scenes" : [
        {
            "name" : "Scene",
            "nodes" : [
                0
            ]
        }
    ],
    "nodes" : [
        {
            "mesh" : 0,
            "name" : "screen",
            "rotation" : [
                0,
                0.7072045803070068,
                -0.7070090174674988,
                -5.3377693376432944e-08
            ],
            "scale" : [
                1.0762677192687988,
                0.9761219620704651,
                1.0760362148284912
            ],
            "translation" : [
                -0.4647235870361328,
                5.295187473297119,
                -0.48387810587882996
            ]
        }
    ],
    "materials" : [
        {
            "doubleSided" : true,
            "name" : "Material.009",
            "pbrMetallicRoughness" : {
                "baseColorTexture" : {
                    "index" : 0
                },
                "metallicFactor" : 0,
                "roughnessFactor" : 0.5
            }
        },
        {
            "doubleSided" : true,
            "name" : "phone_color",
            "pbrMetallicRoughness" : {
                "baseColorFactor" : [
                    0.800000011920929,
                    0.800000011920929,
                    0.800000011920929,
                    1
                ],
                "metallicFactor" : 0.6499999761581421,
                "roughnessFactor" : 0.5
            }
        },
        {
            "doubleSided" : true,
            "name" : "Material.004",
            "pbrMetallicRoughness" : {
                "baseColorTexture" : {
                    "index" : 1
                },
                "metallicFactor" : 0,
                "roughnessFactor" : 0.5
            }
        },
        {
            "doubleSided" : true,
            "name" : "Material.005",
            "pbrMetallicRoughness" : {
                "baseColorTexture" : {
                    "index" : 2
                },
                "metallicFactor" : 0,
                "roughnessFactor" : 0.5
            }
        },
        {
            "doubleSided" : true,
            "name" : "Material.008",
            "pbrMetallicRoughness" : {
                "baseColorTexture" : {
                    "index" : 3
                },
                "metallicFactor" : 0,
                "roughnessFactor" : 0.5
            }
        }
    ],
    "meshes" : [
        {
            "name" : "Plane",
            "primitives" : [
                {
                    "attributes" : {
                        "POSITION" : 0,
                        "NORMAL" : 1,
                        "TEXCOORD_0" : 2
                    },
                    "indices" : 3,
                    "material" : 0
                },
                {
                    "attributes" : {
                        "POSITION" : 4,
                        "NORMAL" : 5,
                        "TEXCOORD_0" : 6
                    },
                    "indices" : 7,
                    "material" : 1
                },
                {
                    "attributes" : {
                        "POSITION" : 8,
                        "NORMAL" : 9,
                        "TEXCOORD_0" : 10
                    },
                    "indices" : 11,
                    "material" : 2
                },
                {
                    "attributes" : {
                        "POSITION" : 12,
                        "NORMAL" : 13,
                        "TEXCOORD_0" : 14
                    },
                    "indices" : 11,
                    "material" : 3
                },
                {
                    "attributes" : {
                        "POSITION" : 15,
                        "NORMAL" : 16,
                        "TEXCOORD_0" : 17
                    },
                    "indices" : 18,
                    "material" : 4
                }
            ]
        }
    ],
    "textures" : [
        {
            "sampler" : 0,
            "source" : 0
        },
        {
            "sampler" : 1,
            "source" : 1
        },
        {
            "sampler" : 1,
            "source" : 2
        },
        {
            "sampler" : 1,
            "source" : 3
        }
    ],
    "images" : [
        {
            "mimeType" : "image/jpeg",
            "name" : "315315f891bbce934a88a936eeb02029",
            "uri" : "315315f891bbce934a88a936eeb02029.jpg"
        },
        {
            "mimeType" : "image/png",
            "name" : "cameralens",
            "uri" : "cameralens.png"
        },
        {
            "mimeType" : "image/png",
            "name" : "cameralens.png",
            "uri" : "cameralens_png.png"
        },
        {
            "mimeType" : "image/png",
            "name" : "cameraflash",
            "uri" : "cameraflash.png"
        }
    ],
    "accessors" : [
        {
            "bufferView" : 0,
            "componentType" : 5126,
            "count" : 136,
            "max" : [
                3.1775619983673096,
                0.0002724803052842617,
                12.986557006835938
            ],
            "min" : [
                -3.9272818565368652,
                -0.0033120804000645876,
                -1.99873685836792
            ],
            "type" : "VEC3"
        },
        {
            "bufferView" : 1,
            "componentType" : 5126,
            "count" : 136,
            "type" : "VEC3"
        },
        {
            "bufferView" : 2,
            "componentType" : 5126,
            "count" : 136,
            "type" : "VEC2"
        },
        {
            "bufferView" : 3,
            "componentType" : 5123,
            "count" : 402,
            "type" : "SCALAR"
        },
        {
            "bufferView" : 4,
            "componentType" : 5126,
            "count" : 934396,
            "max" : [
                3.2995541095733643,
                -0.020072221755981445,
                13.13139820098877
            ],
            "min" : [
                -4.101334571838379,
                -1.116207242012024,
                -2.1730430126190186
            ],
            "type" : "VEC3"
        },
        {
            "bufferView" : 5,
            "componentType" : 5126,
            "count" : 934396,
            "type" : "VEC3"
        },
        {
            "bufferView" : 6,
            "componentType" : 5126,
            "count" : 934396,
            "type" : "VEC2"
        },
        {
            "bufferView" : 7,
            "componentType" : 5125,
            "count" : 943224,
            "type" : "SCALAR"
        },
        {
            "bufferView" : 8,
            "componentType" : 5126,
            "count" : 32,
            "max" : [
                0.7554078698158264,
                -1.1226495504379272,
                0.06583219766616821
            ],
            "min" : [
                -0.40555208921432495,
                -1.1252957582473755,
                -1.0957255363464355
            ],
            "type" : "VEC3"
        },
        {
            "bufferView" : 9,
            "componentType" : 5126,
            "count" : 32,
            "type" : "VEC3"
        },
        {
            "bufferView" : 10,
            "componentType" : 5126,
            "count" : 32,
            "type" : "VEC2"
        },
        {
            "bufferView" : 11,
            "componentType" : 5123,
            "count" : 90,
            "type" : "SCALAR"
        },
        {
            "bufferView" : 12,
            "componentType" : 5126,
            "count" : 32,
            "max" : [
                -0.35247790813446045,
                -1.1220130920410156,
                1.1823326349258423
            ],
            "min" : [
                -1.5134378671646118,
                -1.1246592998504639,
                0.0207749605178833
            ],
            "type" : "VEC3"
        },
        {
            "bufferView" : 13,
            "componentType" : 5126,
            "count" : 32,
            "type" : "VEC3"
        },
        {
            "bufferView" : 14,
            "componentType" : 5126,
            "count" : 32,
            "type" : "VEC2"
        },
        {
            "bufferView" : 15,
            "componentType" : 5126,
            "count" : 96,
            "max" : [
                -0.9236035943031311,
                -0.9623079299926758,
                -0.49050459265708923
            ],
            "min" : [
                -1.3364217281341553,
                -0.9650764465332031,
                -0.9034081697463989
            ],
            "type" : "VEC3"
        },
        {
            "bufferView" : 16,
            "componentType" : 5126,
            "count" : 96,
            "type" : "VEC3"
        },
        {
            "bufferView" : 17,
            "componentType" : 5126,
            "count" : 96,
            "type" : "VEC2"
        },
        {
            "bufferView" : 18,
            "componentType" : 5123,
            "count" : 96,
            "type" : "SCALAR"
        }
    ],
    "bufferViews" : [
        {
            "buffer" : 0,
            "byteLength" : 1632,
            "byteOffset" : 0
        },
        {
            "buffer" : 0,
            "byteLength" : 1632,
            "byteOffset" : 1632
        },
        {
            "buffer" : 0,
            "byteLength" : 1088,
            "byteOffset" : 3264
        },
        {
            "buffer" : 0,
            "byteLength" : 804,
            "byteOffset" : 4352
        },
        {
            "buffer" : 0,
            "byteLength" : 11212752,
            "byteOffset" : 5156
        },
        {
            "buffer" : 0,
            "byteLength" : 11212752,
            "byteOffset" : 11217908
        },
        {
            "buffer" : 0,
            "byteLength" : 7475168,
            "byteOffset" : 22430660
        },
        {
            "buffer" : 0,
            "byteLength" : 3772896,
            "byteOffset" : 29905828
        },
        {
            "buffer" : 0,
            "byteLength" : 384,
            "byteOffset" : 33678724
        },
        {
            "buffer" : 0,
            "byteLength" : 384,
            "byteOffset" : 33679108
        },
        {
            "buffer" : 0,
            "byteLength" : 256,
            "byteOffset" : 33679492
        },
        {
            "buffer" : 0,
            "byteLength" : 180,
            "byteOffset" : 33679748
        },
        {
            "buffer" : 0,
            "byteLength" : 384,
            "byteOffset" : 33679928
        },
        {
            "buffer" : 0,
            "byteLength" : 384,
            "byteOffset" : 33680312
        },
        {
            "buffer" : 0,
            "byteLength" : 256,
            "byteOffset" : 33680696
        },
        {
            "buffer" : 0,
            "byteLength" : 1152,
            "byteOffset" : 33680952
        },
        {
            "buffer" : 0,
            "byteLength" : 1152,
            "byteOffset" : 33682104
        },
        {
            "buffer" : 0,
            "byteLength" : 768,
            "byteOffset" : 33683256
        },
        {
            "buffer" : 0,
            "byteLength" : 192,
            "byteOffset" : 33684024
        }
    ],
    "samplers" : [
        {
            "magFilter" : 9729,
            "minFilter" : 9987,
            "wrapS" : 33071,
            "wrapT" : 33071
        },
        {
            "magFilter" : 9729,
            "minFilter" : 9987
        }
    ],
    "buffers" : [
        {
            "byteLength" : 33684216,
            "uri" : "phone_v4.bin"
        }
    ]
}
