{
    "asset" : {
        "generator" : "Khronos glTF Blender I/O v1.7.33",
        "version" : "2.0"
    },
    "scene" : 0,
    "scenes" : [
        {
            "name" : "Scene",
            "nodes" : [
                0
            ]
        }
    ],
    "nodes" : [
        {
            "mesh" : 0,
            "name" : "Plane",
            "rotation" : [
                0,
                0,
                0.7090312838554382,
                0.7051770091056824
            ],
            "scale" : [
                0.19999998807907104,
                0.19999998807907104,
                0.19999998807907104
            ],
            "translation" : [
                -0.685157299041748,
                0.5428464412689209,
                -0.011921614408493042
            ]
        }
    ],
    "materials" : [
        {
            "doubleSided" : true,
            "name" : "phone_color",
            "pbrMetallicRoughness" : {
                "baseColorFactor" : [
                    0.2780833840370178,
                    0.3224658966064453,
                    0.32796427607536316,
                    1
                ],
                "metallicFactor" : 0.6499999761581421,
                "roughnessFactor" : 0.5
            }
        },
        {
            "doubleSided" : true,
            "name" : "Material.004",
            "pbrMetallicRoughness" : {
                "baseColorTexture" : {
                    "index" : 0
                },
                "metallicFactor" : 0,
                "roughnessFactor" : 0.5
            }
        },
        {
            "doubleSided" : true,
            "name" : "Material.005",
            "pbrMetallicRoughness" : {
                "baseColorTexture" : {
                    "index" : 1
                },
                "metallicFactor" : 0,
                "roughnessFactor" : 0.5
            }
        },
        {
            "doubleSided" : true,
            "name" : "Material.008",
            "pbrMetallicRoughness" : {
                "baseColorTexture" : {
                    "index" : 2
                },
                "metallicFactor" : 0,
                "roughnessFactor" : 0.5
            }
        },
        {
            "doubleSided" : true,
            "name" : "Material.009",
            "pbrMetallicRoughness" : {
                "baseColorTexture" : {
                    "index" : 3
                },
                "metallicFactor" : 0,
                "roughnessFactor" : 0.5
            }
        }
    ],
    "meshes" : [
        {
            "name" : "Plane.001",
            "primitives" : [
                {
                    "attributes" : {
                        "POSITION" : 0,
                        "TEXCOORD_0" : 1
                    },
                    "indices" : 2,
                    "material" : 0
                },
                {
                    "attributes" : {
                        "POSITION" : 3,
                        "TEXCOORD_0" : 4
                    },
                    "indices" : 5,
                    "material" : 1
                },
                {
                    "attributes" : {
                        "POSITION" : 6,
                        "TEXCOORD_0" : 7
                    },
                    "indices" : 5,
                    "material" : 2
                },
                {
                    "attributes" : {
                        "POSITION" : 8,
                        "TEXCOORD_0" : 9
                    },
                    "indices" : 10,
                    "material" : 3
                },
                {
                    "attributes" : {
                        "POSITION" : 11,
                        "TEXCOORD_0" : 12
                    },
                    "indices" : 13,
                    "material" : 4
                }
            ]
        }
    ],
    "textures" : [
        {
            "sampler" : 0,
            "source" : 0
        },
        {
            "sampler" : 0,
            "source" : 1
        },
        {
            "sampler" : 0,
            "source" : 2
        },
        {
            "sampler" : 1,
            "source" : 3
        }
    ],
    "images" : [
        {
            "mimeType" : "image/png",
            "name" : "cameralens",
            "uri" : "cameralens.png"
        },
        {
            "mimeType" : "image/png",
            "name" : "cameralens.png",
            "uri" : "cameralens_png.png"
        },
        {
            "mimeType" : "image/png",
            "name" : "cameraflash",
            "uri" : "cameraflash.png"
        },
        {
            "mimeType" : "image/jpeg",
            "name" : "screen",
            "uri" : "screen.jpg"
        }
    ],
    "accessors" : [
        {
            "bufferView" : 0,
            "componentType" : 5126,
            "count" : 157076,
            "max" : [
                4.808475494384766,
                0.07387383282184601,
                0.7330563068389893
            ],
            "min" : [
                -9.944684982299805,
                -7.223085880279541,
                -0.3359135389328003
            ],
            "type" : "VEC3"
        },
        {
            "bufferView" : 1,
            "componentType" : 5126,
            "count" : 157076,
            "type" : "VEC2"
        },
        {
            "bufferView" : 2,
            "componentType" : 5125,
            "count" : 942408,
            "type" : "SCALAR"
        },
        {
            "bufferView" : 3,
            "componentType" : 5126,
            "count" : 32,
            "max" : [
                4.1088337898254395,
                -0.7518987655639648,
                0.7425844073295593
            ],
            "min" : [
                2.8589749336242676,
                -2.0013837814331055,
                0.7397139668464661
            ],
            "type" : "VEC3"
        },
        {
            "bufferView" : 4,
            "componentType" : 5126,
            "count" : 32,
            "type" : "VEC2"
        },
        {
            "bufferView" : 5,
            "componentType" : 5123,
            "count" : 90,
            "type" : "SCALAR"
        },
        {
            "bufferView" : 6,
            "componentType" : 5126,
            "count" : 32,
            "max" : [
                2.9009571075439453,
                -1.937713861465454,
                0.7416308522224426
            ],
            "min" : [
                1.6510982513427734,
                -3.1871988773345947,
                0.7387604117393494
            ],
            "type" : "VEC3"
        },
        {
            "bufferView" : 7,
            "componentType" : 5126,
            "count" : 32,
            "type" : "VEC2"
        },
        {
            "bufferView" : 8,
            "componentType" : 5126,
            "count" : 33,
            "max" : [
                3.894286870956421,
                -2.5600030422210693,
                0.5860502123832703
            ],
            "min" : [
                3.449989080429077,
                -3.0043036937713623,
                0.5834500193595886
            ],
            "type" : "VEC3"
        },
        {
            "bufferView" : 9,
            "componentType" : 5126,
            "count" : 33,
            "type" : "VEC2"
        },
        {
            "bufferView" : 10,
            "componentType" : 5123,
            "count" : 96,
            "type" : "SCALAR"
        },
        {
            "bufferView" : 11,
            "componentType" : 5126,
            "count" : 136,
            "max" : [
                4.741461277008057,
                -0.023191213607788086,
                -0.3558565080165863
            ],
            "min" : [
                -9.85677433013916,
                -7.163533687591553,
                -0.35645031929016113
            ],
            "type" : "VEC3"
        },
        {
            "bufferView" : 12,
            "componentType" : 5126,
            "count" : 136,
            "type" : "VEC2"
        },
        {
            "bufferView" : 13,
            "componentType" : 5123,
            "count" : 402,
            "type" : "SCALAR"
        }
    ],
    "bufferViews" : [
        {
            "buffer" : 0,
            "byteLength" : 1884912,
            "byteOffset" : 0
        },
        {
            "buffer" : 0,
            "byteLength" : 1256608,
            "byteOffset" : 1884912
        },
        {
            "buffer" : 0,
            "byteLength" : 3769632,
            "byteOffset" : 3141520
        },
        {
            "buffer" : 0,
            "byteLength" : 384,
            "byteOffset" : 6911152
        },
        {
            "buffer" : 0,
            "byteLength" : 256,
            "byteOffset" : 6911536
        },
        {
            "buffer" : 0,
            "byteLength" : 180,
            "byteOffset" : 6911792
        },
        {
            "buffer" : 0,
            "byteLength" : 384,
            "byteOffset" : 6911972
        },
        {
            "buffer" : 0,
            "byteLength" : 256,
            "byteOffset" : 6912356
        },
        {
            "buffer" : 0,
            "byteLength" : 396,
            "byteOffset" : 6912612
        },
        {
            "buffer" : 0,
            "byteLength" : 264,
            "byteOffset" : 6913008
        },
        {
            "buffer" : 0,
            "byteLength" : 192,
            "byteOffset" : 6913272
        },
        {
            "buffer" : 0,
            "byteLength" : 1632,
            "byteOffset" : 6913464
        },
        {
            "buffer" : 0,
            "byteLength" : 1088,
            "byteOffset" : 6915096
        },
        {
            "buffer" : 0,
            "byteLength" : 804,
            "byteOffset" : 6916184
        }
    ],
    "samplers" : [
        {
            "magFilter" : 9729,
            "minFilter" : 9987
        },
        {
            "magFilter" : 9729,
            "minFilter" : 9987,
            "wrapS" : 33071,
            "wrapT" : 33071
        }
    ],
    "buffers" : [
        {
            "byteLength" : 6916988,
            "uri" : "phone_v3.4.bin"
        }
    ]
}
