{
    "asset" : {
        "generator" : "Khronos glTF Blender I/O v1.7.33",
        "version" : "2.0"
    },
    "scene" : 0,
    "scenes" : [
        {
            "name" : "Scene",
            "nodes" : [
                0
            ]
        }
    ],
    "nodes" : [
        {
            "mesh" : 0,
            "name" : "screen",
            "rotation" : [
                0,
                0.7072045803070068,
                -0.7070090174674988,
                -5.3377693376432944e-08
            ],
            "scale" : [
                0.2152535319328308,
                0.19522437453269958,
                0.21520723402500153
            ],
            "translation" : [
                -0.049837082624435425,
                -0.6006913185119629,
                -0.07851746678352356
            ]
        }
    ],
    "materials" : [
        {
            "doubleSided" : true,
            "name" : "Material.009",
            "pbrMetallicRoughness" : {
                "baseColorTexture" : {
                    "index" : 0
                },
                "metallicFactor" : 0,
                "roughnessFactor" : 0.5
            }
        },
        {
            "doubleSided" : true,
            "name" : "phone_color",
            "pbrMetallicRoughness" : {
                "baseColorFactor" : [
                    0.800000011920929,
                    0.800000011920929,
                    0.800000011920929,
                    1
                ],
                "metallicFactor" : 0.6499999761581421,
                "roughnessFactor" : 0.5
            }
        },
        {
            "doubleSided" : true,
            "name" : "Material.004",
            "pbrMetallicRoughness" : {
                "baseColorTexture" : {
                    "index" : 1
                },
                "metallicFactor" : 0,
                "roughnessFactor" : 0.5
            }
        },
        {
            "doubleSided" : true,
            "name" : "Material.005",
            "pbrMetallicRoughness" : {
                "baseColorTexture" : {
                    "index" : 2
                },
                "metallicFactor" : 0,
                "roughnessFactor" : 0.5
            }
        },
        {
            "doubleSided" : true,
            "name" : "Material.008",
            "pbrMetallicRoughness" : {
                "baseColorTexture" : {
                    "index" : 3
                },
                "metallicFactor" : 0,
                "roughnessFactor" : 0.5
            }
        }
    ],
    "meshes" : [
        {
            "name" : "Plane",
            "primitives" : [
                {
                    "attributes" : {
                        "POSITION" : 0,
                        "NORMAL" : 1,
                        "TEXCOORD_0" : 2
                    },
                    "indices" : 3,
                    "material" : 0
                },
                {
                    "attributes" : {
                        "POSITION" : 4,
                        "NORMAL" : 5,
                        "TEXCOORD_0" : 6
                    },
                    "indices" : 7,
                    "material" : 1
                },
                {
                    "attributes" : {
                        "POSITION" : 8,
                        "NORMAL" : 9,
                        "TEXCOORD_0" : 10
                    },
                    "indices" : 11,
                    "material" : 2
                },
                {
                    "attributes" : {
                        "POSITION" : 12,
                        "NORMAL" : 13,
                        "TEXCOORD_0" : 14
                    },
                    "indices" : 11,
                    "material" : 3
                },
                {
                    "attributes" : {
                        "POSITION" : 15,
                        "NORMAL" : 16,
                        "TEXCOORD_0" : 17
                    },
                    "indices" : 18,
                    "material" : 4
                }
            ]
        }
    ],
    "textures" : [
        {
            "sampler" : 0,
            "source" : 0
        },
        {
            "sampler" : 1,
            "source" : 1
        },
        {
            "sampler" : 1,
            "source" : 2
        },
        {
            "sampler" : 1,
            "source" : 3
        }
    ],
    "images" : [
        {
            "mimeType" : "image/jpeg",
            "name" : "315315f891bbce934a88a936eeb02029",
            "uri" : "315315f891bbce934a88a936eeb02029.jpg"
        },
        {
            "mimeType" : "image/png",
            "name" : "cameralens",
            "uri" : "cameralens.png"
        },
        {
            "mimeType" : "image/png",
            "name" : "cameralens.png",
            "uri" : "cameralens_png.png"
        },
        {
            "mimeType" : "image/png",
            "name" : "cameraflash",
            "uri" : "cameraflash.png"
        }
    ],
    "accessors" : [
        {
            "bufferView" : 0,
            "componentType" : 5126,
            "count" : 136,
            "max" : [
                3.563049077987671,
                0.41721951961517334,
                7.507404327392578
            ],
            "min" : [
                -3.541794776916504,
                0.4136349558830261,
                -7.477889537811279
            ],
            "type" : "VEC3"
        },
        {
            "bufferView" : 1,
            "componentType" : 5126,
            "count" : 136,
            "type" : "VEC3"
        },
        {
            "bufferView" : 2,
            "componentType" : 5126,
            "count" : 136,
            "type" : "VEC2"
        },
        {
            "bufferView" : 3,
            "componentType" : 5123,
            "count" : 402,
            "type" : "SCALAR"
        },
        {
            "bufferView" : 4,
            "componentType" : 5126,
            "count" : 934858,
            "max" : [
                3.6850411891937256,
                0.3968748152256012,
                7.65224552154541
            ],
            "min" : [
                -3.7158474922180176,
                -0.6992602348327637,
                -7.652195930480957
            ],
            "type" : "VEC3"
        },
        {
            "bufferView" : 5,
            "componentType" : 5126,
            "count" : 934858,
            "type" : "VEC3"
        },
        {
            "bufferView" : 6,
            "componentType" : 5126,
            "count" : 934858,
            "type" : "VEC2"
        },
        {
            "bufferView" : 7,
            "componentType" : 5125,
            "count" : 943224,
            "type" : "SCALAR"
        },
        {
            "bufferView" : 8,
            "componentType" : 5126,
            "count" : 32,
            "max" : [
                1.1408950090408325,
                -0.705702543258667,
                -5.413320541381836
            ],
            "min" : [
                -0.02006492018699646,
                -0.7083487510681152,
                -6.574878215789795
            ],
            "type" : "VEC3"
        },
        {
            "bufferView" : 9,
            "componentType" : 5126,
            "count" : 32,
            "type" : "VEC3"
        },
        {
            "bufferView" : 10,
            "componentType" : 5126,
            "count" : 32,
            "type" : "VEC2"
        },
        {
            "bufferView" : 11,
            "componentType" : 5123,
            "count" : 90,
            "type" : "SCALAR"
        },
        {
            "bufferView" : 12,
            "componentType" : 5126,
            "count" : 32,
            "max" : [
                0.03300926089286804,
                -0.7050660848617554,
                -4.296820163726807
            ],
            "min" : [
                -1.127950668334961,
                -0.7077122926712036,
                -5.458377838134766
            ],
            "type" : "VEC3"
        },
        {
            "bufferView" : 13,
            "componentType" : 5126,
            "count" : 32,
            "type" : "VEC3"
        },
        {
            "bufferView" : 14,
            "componentType" : 5126,
            "count" : 32,
            "type" : "VEC2"
        },
        {
            "bufferView" : 15,
            "componentType" : 5126,
            "count" : 96,
            "max" : [
                -0.538116455078125,
                -0.5453609228134155,
                -5.9696574211120605
            ],
            "min" : [
                -0.9509345293045044,
                -0.5481294393539429,
                -6.382560729980469
            ],
            "type" : "VEC3"
        },
        {
            "bufferView" : 16,
            "componentType" : 5126,
            "count" : 96,
            "type" : "VEC3"
        },
        {
            "bufferView" : 17,
            "componentType" : 5126,
            "count" : 96,
            "type" : "VEC2"
        },
        {
            "bufferView" : 18,
            "componentType" : 5123,
            "count" : 96,
            "type" : "SCALAR"
        }
    ],
    "bufferViews" : [
        {
            "buffer" : 0,
            "byteLength" : 1632,
            "byteOffset" : 0
        },
        {
            "buffer" : 0,
            "byteLength" : 1632,
            "byteOffset" : 1632
        },
        {
            "buffer" : 0,
            "byteLength" : 1088,
            "byteOffset" : 3264
        },
        {
            "buffer" : 0,
            "byteLength" : 804,
            "byteOffset" : 4352
        },
        {
            "buffer" : 0,
            "byteLength" : 11218296,
            "byteOffset" : 5156
        },
        {
            "buffer" : 0,
            "byteLength" : 11218296,
            "byteOffset" : 11223452
        },
        {
            "buffer" : 0,
            "byteLength" : 7478864,
            "byteOffset" : 22441748
        },
        {
            "buffer" : 0,
            "byteLength" : 3772896,
            "byteOffset" : 29920612
        },
        {
            "buffer" : 0,
            "byteLength" : 384,
            "byteOffset" : 33693508
        },
        {
            "buffer" : 0,
            "byteLength" : 384,
            "byteOffset" : 33693892
        },
        {
            "buffer" : 0,
            "byteLength" : 256,
            "byteOffset" : 33694276
        },
        {
            "buffer" : 0,
            "byteLength" : 180,
            "byteOffset" : 33694532
        },
        {
            "buffer" : 0,
            "byteLength" : 384,
            "byteOffset" : 33694712
        },
        {
            "buffer" : 0,
            "byteLength" : 384,
            "byteOffset" : 33695096
        },
        {
            "buffer" : 0,
            "byteLength" : 256,
            "byteOffset" : 33695480
        },
        {
            "buffer" : 0,
            "byteLength" : 1152,
            "byteOffset" : 33695736
        },
        {
            "buffer" : 0,
            "byteLength" : 1152,
            "byteOffset" : 33696888
        },
        {
            "buffer" : 0,
            "byteLength" : 768,
            "byteOffset" : 33698040
        },
        {
            "buffer" : 0,
            "byteLength" : 192,
            "byteOffset" : 33698808
        }
    ],
    "samplers" : [
        {
            "magFilter" : 9729,
            "minFilter" : 9987,
            "wrapS" : 33071,
            "wrapT" : 33071
        },
        {
            "magFilter" : 9729,
            "minFilter" : 9987
        }
    ],
    "buffers" : [
        {
            "byteLength" : 33699000,
            "uri" : "phone_v3-unjoined.bin"
        }
    ]
}
